<?xml version="1.0" standalone="no"?>
<!DOCTYPE svg PUBLIC "-//W3C//DTD SVG 1.1//EN" "http://www.w3.org/Graphics/SVG/1.1/DTD/svg11.dtd" >
<!--
2013-9-30: Created.
-->
<svg>
<metadata>
Created by iconfont
</metadata>
<defs>

<font id="iconfont" horiz-adv-x="1024" >
  <font-face
    font-family="iconfont"
    font-weight="500"
    font-stretch="normal"
    units-per-em="1024"
    ascent="896"
    descent="-128"
  />
    <missing-glyph />
    
    <glyph glyph-name="queren" unicode="&#58917;" d="M653.5 747.9v-32.4H370.3v32.4h283.2m20 50H350.3c-16.6 0-30-13.4-30-30v-72.4c0-16.6 13.4-30 30-30h323.3c16.6 0 30 13.4 30 30v72.4c-0.1 16.6-13.5 30-30.1 30z m-210.3-575c-6.6 0-13 2.6-17.7 7.3l-136 136c-9.8 9.8-9.8 25.6 0 35.4 9.8 9.8 25.6 9.8 35.4 0l118.3-118.3L671.9 492c9.8 9.8 25.6 9.8 35.4 0 9.8-9.8 9.8-25.6 0-35.4L480.9 230.2c-4.7-4.7-11-7.3-17.7-7.3zM826.8 759.1H197c-16.6 0-30-13.4-30-30v-728.5c0-16.6 13.4-30 30-30h629.8c16.6 0 30 13.4 30 30V729.1c0 16.5-13.5 30-30 30z m-20-738.5H217V709.1h103.2v50h383.3v-50h103.2v-688.5z"  horiz-adv-x="1024" />

    
    <glyph glyph-name="dian" unicode="&#59301;" d="M512 384m-160 0a160 160 0 1 1 320 0 160 160 0 1 1-320 0Z"  horiz-adv-x="1024" />

    
    <glyph glyph-name="danxuan" unicode="&#58890;" d="M512 810.667C276.357 810.667 85.333 619.64 85.333 384S276.357-42.667 512-42.667c235.64 0 426.667 191.027 426.667 426.667S747.64 810.667 512 810.667zM512 0c-212.08 0-384 171.925-384 384 0 212.077 171.92 384 384 384 212.075 0 384-171.923 384-384 0-212.075-171.925-384-384-384zM277.333 384a88 88 0 1 1 469.334 0 88 88 0 1 1-469.334 0z"  horiz-adv-x="1024" />

    
    <glyph glyph-name="duoxuan" unicode="&#58891;" d="M838.05 805.875h-652.1c-52.613 0-95.825-43.152-95.825-95.826v-652.098c0-52.614 43.152-95.826 95.826-95.826h652.098c52.674 0 95.826 43.152 95.826 95.826V710.049c0 52.614-43.152 95.826-95.826 95.826z m38.33-747.924a38.993 38.993 0 0 0-38.391-38.27H186.01a38.933 38.933 0 0 0-38.33 38.33V709.99c0 20.732 17.598 38.33 38.33 38.33H837.99c20.732 0 38.39-17.598 38.39-38.33V58.01z"  horiz-adv-x="1024" />

    
    <glyph glyph-name="dankuang--guanbi" unicode="&#58892;" d="M568.922 387.768L868.29 687.193a39.139 39.139 0 0 1 0 55.145l-1.64 1.64a39.139 39.139 0 0 1-55.09 0l-299.367-299.82-299.425 299.934a39.139 39.139 0 0 1-55.088 0l-1.697-1.64a38.46 38.46 0 0 1 0-55.09l299.48-299.594-299.424-299.48a39.139 39.139 0 0 1 0-55.09l1.64-1.696a39.139 39.139 0 0 1 55.09 0l299.424 299.48L811.56 31.559a39.139 39.139 0 0 1 55.089 0l1.696 1.64a39.139 39.139 0 0 1 0 55.09l-299.48 299.537z"  horiz-adv-x="1024" />

    
    <glyph glyph-name="danxuan--yuan" unicode="&#58893;" d="M512 810.667A426.667 426.667 0 1 1 938.667 384 426.667 426.667 0 0 1 512 810.667z m0-789.334A362.667 362.667 0 1 0 874.667 384 362.667 362.667 0 0 0 512 21.333zM443.733 216.533a32.64 32.64 0 0 0-22.613 9.387l-134.4 134.613a31.787 31.787 0 0 0 0 45.227 32.213 32.213 0 0 0 45.227 0l111.786-112 248.32 248.32a32.213 32.213 0 0 0 45.227 0 31.787 31.787 0 0 0 0-45.227L466.347 225.92a32 32 0 0 0-22.614-9.387z"  horiz-adv-x="1024" />

    
    <glyph glyph-name="fanhui" unicode="&#58894;" d="M189.76 174.336c136.128 340.672 463.488 279.552 463.488 279.552v-186.304L1024 547.008 653.248 826.56v-139.776C143.424 579.072 189.76 174.336 189.76 174.336m559.04-153.28H79.68v525.76H264.576c27.776 31.872 61.248 63.744 101.504 95.616H0V-58.56h828.48V327.488l-79.68-64.576v-241.856z"  horiz-adv-x="1024" />

    
    <glyph glyph-name="guanbi" unicode="&#58895;" d="M512-120C233.6-120 8 105.6 8 384S233.6 888 512 888s504-225.6 504-504-225.6-504-504-504z m0 960C260.8 840 56 635.2 56 384s204.8-456 456-456 456 204.8 456 456S763.2 840 512 840zM548.8 384L744 579.2c9.6 9.6 9.6 25.6 0 36.8l-1.6 1.6c-9.6 9.6-25.6 9.6-35.2 0L512 420.8 316.8 616c-9.6 9.6-25.6 9.6-35.2 0l-1.6-1.6c-9.6-9.6-9.6-25.6 0-36.8L475.2 384 280 188.8c-9.6-9.6-9.6-25.6 0-36.8l1.6-1.6c9.6-9.6 25.6-9.6 35.2 0L512 347.2 707.2 152c9.6-9.6 25.6-9.6 35.2 0l1.6 1.6c9.6 9.6 9.6 25.6 0 36.8L548.8 384z"  horiz-adv-x="1024" />

    
    <glyph glyph-name="duoxuan--duihao" unicode="&#58896;" d="M837.997 805.875H186.003c-52.735 0-95.878-43.143-95.878-95.878v-651.994c0-52.735 43.143-95.878 95.878-95.878h651.994c52.735 0 95.878 43.143 95.878 95.878V709.997c0 52.735-43.143 95.878-95.878 95.878z m38.352-747.871c0-20.711-17.647-38.347-38.353-38.347H186.004c-20.712 0-38.347 17.636-38.347 38.347V709.997c0 20.705 17.635 38.346 38.347 38.346h651.992c20.706 0 38.353-17.64 38.353-38.346v-651.994zM752.685 604.033l-358.283-373.57-125.041 130.395c-11.378 11.87-29.825 11.87-41.202 0-11.385-11.865-11.385-31.095 0-42.967L373.8 165.999c5.692-5.932 13.15-8.899 20.6-8.899 7.464 0 14.915 2.967 20.602 8.9l378.884 395.058c11.385 11.871 11.385 31.103 0 42.975-11.378 11.87-29.824 11.87-41.202 0z"  horiz-adv-x="1024" />

    
    <glyph glyph-name="guanbi--dankuangyoushangjiao" unicode="&#58897;" d="M0 383.720155C0 666.765069 229.375931 896 511.999845 896s511.999845-229.235931 511.999845-511.719845v-0.56a511.068845 511.068845 0 0 0-149.806955-362.00589A511.603845 511.603845 0 0 0 511.999845-127.99969C228.816931-127.99969 0 101.237241 0 383.720155z m546.233835 0l178.827945 178.734946a23.272993 23.272993 0 0 1 0 33.13999l-1.093999 1.071a23.272993 23.272993 0 0 1-33.13999 0L511.999845 417.420145 333.171899 596.666091a23.272993 23.272993 0 0 1-33.13999 0l-1.093999-1.07a23.272993 23.272993 0 0 1 0-33.13999l178.827945-179.269946L298.93791 204.450209a23.272993 23.272993 0 0 1 0-33.11699l1.093999-1.093999a23.272993 23.272993 0 0 1 33.13999 0L511.999845 348.975166 690.826791 170.24022a23.272993 23.272993 0 0 1 33.13999 0l1.094999 1.093999a23.272993 23.272993 0 0 1 0 33.11699l-178.827945 179.269946z"  horiz-adv-x="1024" />

    
    <glyph glyph-name="jianzhengjiluguanli" unicode="&#58898;" d="M588.34 268.23a109.16 109.16 0 1 1-155.07-1.5 173 173 0 0 1-41.47-37.65c-30.27-37.65-47-87.29-47-139.92a28 28 0 0 1 56 0c0 39.85 12.29 77.1 34.57 104.86 20.89 26 48.06 40.25 76.64 40.25S567.75 220 588.65 194c22.26-27.76 34.56-65 34.56-104.86a28 28 0 0 1 55.95 0c0 52.63-16.68 102.27-47 139.92a173.41 173.41 0 0 1-43.82 39.17zM510.1 291.1a53.23 53.23 0 1 0 53.27 53.23 53.3 53.3 0 0 0-53.27-53.23zM749.57 800.44H274.43a116.13 116.13 0 0 1-116-116v-600.88a116.13 116.13 0 0 1 116-116h475.14a116.13 116.13 0 0 1 116 116V684.44a116.13 116.13 0 0 1-116 116z m60-716.88a60.07 60.07 0 0 0-60-60H274.43a60.07 60.07 0 0 0-60 60V554.31a115.32 115.32 0 0 1 60-16.76h155a87.52 87.52 0 0 1 165.08 0h155a115.32 115.32 0 0 1 60 16.76z m-329.05 483a31.48 31.48 0 0 0 63 0v-0.56a31.47 31.47 0 0 0-62.94 0v0.56z m329.05 87a60.07 60.07 0 0 0-60-60H595.22a87.48 87.48 0 0 1-166.44 0H274.43a60.07 60.07 0 0 0-60 60v30.88a60.07 60.07 0 0 0 60 60h475.14a60.07 60.07 0 0 0 60-60z"  horiz-adv-x="1024" />

    
    <glyph glyph-name="renyuanguanli" unicode="&#58899;" d="M300.8 115.2C179.2 160 96 275.2 96 416c0 179.2 140.8 320 320 320 76.8 0 147.2-25.6 198.4-70.4l32 57.6C582.4 768 505.6 800 416 800 204.8 800 32 627.2 32 416c0-160 96-294.4 236.8-352l32 51.2zM672 608c-108.8 0-192-83.2-192-192s83.2-192 192-192 192 83.2 192 192-83.2 192-192 192z m0-320c-70.4 0-128 57.6-128 128s57.6 128 128 128 128-57.6 128-128-57.6-128-128-128zM416-32c0 140.8 115.2 256 256 256s256-115.2 256-256h64c0 179.2-140.8 320-320 320S352 147.2 352-32h64z m-64 640h64v-192h-64zM288 224h-64l128 192h64z"  horiz-adv-x="1024" />

    
    <glyph glyph-name="shangchuan" unicode="&#58900;" d="M403.41 201.681h256v256h170.635L531.41 756.364 232.727 457.68H403.41v-256z m-170.683-85.317h597.318v-85.318H232.727v85.318z"  horiz-adv-x="1024" />

    
    <glyph glyph-name="rili" unicode="&#58901;" d="M940.8-128H83.2C38.4-128 0-89.6 0-44.8V736c0 44.8 38.4 83.2 83.2 83.2h134.4v-57.6H96c-19.2-6.4-32-19.2-32-32V-32c0-19.2 12.8-32 32-32h838.4c12.8 0 25.6 12.8 25.6 25.6v768c0 12.8-12.8 25.6-25.6 25.6H812.8V812.8h134.4c44.8 0 83.2-38.4 83.2-83.2v-780.8c-6.4-38.4-44.8-76.8-89.6-76.8zM755.2 249.6c32 0 51.2-25.6 51.2-51.2s-25.6-51.2-51.2-51.2-51.2 25.6-51.2 51.2 19.2 51.2 51.2 51.2z m0 134.4c-32 0-51.2 25.6-51.2 51.2 0 32 25.6 51.2 51.2 51.2 32 0 51.2-25.6 51.2-51.2S787.2 384 755.2 384z m-64 294.4h57.6V896h-57.6v-217.6zM512 249.6c32 0 51.2-25.6 51.2-51.2S544 140.8 512 140.8s-51.2 25.6-51.2 51.2 19.2 57.6 51.2 57.6z m0 243.2c32 0 51.2-25.6 51.2-51.2 0-32-19.2-57.6-51.2-57.6s-51.2 25.6-51.2 51.2c0 32 19.2 57.6 51.2 57.6zM384 755.2h256V812.8H384v-57.6zM268.8 140.8c-32 0-51.2 25.6-51.2 51.2 0 32 25.6 51.2 51.2 51.2S320 217.6 320 192c6.4-25.6-19.2-51.2-51.2-51.2z m0 243.2c-32 0-51.2 25.6-51.2 51.2s25.6 51.2 51.2 51.2c32 0 51.2-25.6 51.2-51.2 6.4-25.6-19.2-51.2-51.2-51.2z m0 294.4h57.6V896h-57.6v-217.6z"  horiz-adv-x="1030" />

    
    <glyph glyph-name="jiantouyou" unicode="&#58902;" d="M723.696 362.897c0.486 0.973 1.338 1.824 1.703 2.797 8.514 17.758 5.717 39.651-9.365 53.882L372.309 744.692c-18.731 17.758-48.287 16.907-66.045-1.824s-16.907-48.287 1.824-66.045l308.453-291.79-307.236-296.047c-18.609-17.881-19.096-47.436-1.216-66.045 9.122-9.487 21.407-14.351 33.57-14.352 11.676 0 23.353 4.378 32.353 13.137l340.563 328.278c0.608 0.608 0.851 1.581 1.581 2.189 0.487 0.487 0.973 0.851 1.581 1.338 2.797 2.797 4.135 6.203 5.959 9.365z m0 0z"  horiz-adv-x="1024" />

    
    <glyph glyph-name="shanchu" unicode="&#58903;" d="M608 128c-17.696 0-32 14.304-32 32V512c0 17.696 14.304 32 32 32s32-14.304 32-32v-352c0-17.696-14.304-32-32-32z m-192 0c-17.696 0-32 14.304-32 32V512c0 17.696 14.304 32 32 32s32-14.304 32-32v-352c0-17.696-14.304-32-32-32z m512 544H768v64c0 52.928-42.72 96-95.264 96H352c-52.928 0-96-43.072-96-96v-64H96c-17.696 0-32-14.304-32-32s14.304-32 32-32h832c17.696 0 32 14.304 32 32s-14.304 32-32 32z m-608 64c0 17.632 14.368 32 32 32h320.736C690.272 768 704 753.952 704 736v-64H320v64z m416.128-800H288.064c-52.928 0-96 43.072-96 96V512.48c0 17.664 14.336 32 32 32s32-14.336 32-32V32c0-17.664 14.368-32 32-32h448.064c17.664 0 32 14.336 32 32V511.168c0 17.664 14.304 32 32 32s32-14.336 32-32V32c0-52.928-43.072-96-96-96z"  horiz-adv-x="1024" />

    
    <glyph glyph-name="tianjia" unicode="&#58904;" d="M900.7 463.8H548.4V786.7c0 20.2-16.5 36.7-36.7 36.7-20.2 0-36.7-16.5-36.7-36.7v-322.9H122.8c-20.2 0-36.7-16.5-36.7-36.7 0-20.2 16.5-36.7 36.7-36.7h352.3v-381.6c0-20.2 16.5-36.7 36.7-36.7 20.2 0 36.7 16.5 36.7 36.7V390.4h352.3c20.2 0 36.7 16.5 36.7 36.7-0.1 20.2-16.6 36.7-36.8 36.7z"  horiz-adv-x="1024" />

    
    <glyph glyph-name="tishi" unicode="&#58905;" d="M512.005155 895.98969C441.423176 895.98969 375.010196 882.677694 312.620215 855.979702a515.304844 515.304844 0 0 1-163.10695-109.493967A513.822844 513.822844 0 0 1 40.019298 583.379785 500.803848 500.803848 0 0 1 0.01031 383.994845C0.01031 313.412866 13.322306 246.999886 40.020298 184.608905a515.304844 515.304844 0 0 1 109.493967-163.10595A513.749844 513.749844 0 0 1 312.620215-87.991012C375.010196-114.688004 441.423176-128 512.005155-128S649.000114-114.688004 711.391095-87.991012a513.822844 513.822844 0 0 1 163.10595 109.493967 513.822844 513.822844 0 0 1 109.493967 163.10595A501.096848 501.096848 0 0 1 1024 383.994845c0 70.581979-13.311996 136.994959-40.008988 199.38494a513.822844 513.822844 0 0 1-109.493967 163.10695A513.749844 513.749844 0 0 1 711.391095 855.980702 500.803848 500.803848 0 0 1 512.005155 895.98969z m0-802.442757a56.904983 56.904983 0 0 0-41.836987 17.261995 56.904983 56.904983 0 0 0-17.261995 41.763987 57.049983 57.049983 0 0 0 17.261995 41.836987 56.904983 56.904983 0 0 0 41.836987 17.334995 57.049983 57.049983 0 0 0 41.836987-17.187995 57.049983 57.049983 0 0 0 17.261995-41.909987 57.049983 57.049983 0 0 0-17.261995-41.837987 57.049983 57.049983 0 0 0-41.836987-17.187995z m59.098982 255.997922a57.123983 57.123983 0 0 0-17.261995-41.836987 56.830983 56.830983 0 0 0-41.836987-17.334995 56.977983 56.977983 0 0 0-41.836987 17.261995 56.977983 56.977983 0 0 0-17.261995 41.836987V625.217772a57.049983 57.049983 0 0 0 17.261995 41.836987 56.904983 56.904983 0 0 0 41.836987 17.260995c16.383995 0 30.353991-5.777998 41.836987-17.260995a56.830983 56.830983 0 0 0 17.261995-41.836987v-275.672917z"  horiz-adv-x="1024" />

    
    <glyph glyph-name="xiala" unicode="&#58906;" d="M919.8 514.9L555.2 116.2a57.377 57.377 0 0 0-43.1-19.5c-16.5 0-32.2 7.1-43.1 19.5L104.4 514.9c-17.8 18.8-23.3 46.2-14.1 70.4s31.4 41.1 57.2 43.4h728.9c25.9-2.2 48.2-19 57.4-43.3 9.3-24.3 3.8-51.6-14-70.5z"  horiz-adv-x="1024" />

    
    <glyph glyph-name="zhizaochangguanli" unicode="&#58907;" d="M522.432 764.608l360.32-212.672c7.68-4.48 7.744-11.712 0-16.32l-360.32-212.608a29.76 29.76 0 0 0-27.648 0L134.4 535.68c-7.68 4.48-7.68 11.712 0 16.256l360.32 212.672c7.68 4.48 19.904 4.544 27.648 0z m-30.4-57.92L231.552 552.96c-8.384-4.928-8.32-13.056 0-17.92l260.48-153.728a33.088 33.088 0 0 1 30.464 0l260.48 153.728c8.448 4.928 8.32 13.056 0 17.92l-260.48 153.728a33.152 33.152 0 0 1-30.464 0z m403.392-455.68c7.04-11.008-0.384-25.408-10.304-31.04L541.76 17.536a61.824 61.824 0 0 0-59.52 0l-337.792 196.48c-10.048 5.632-16.192 26.688-9.408 36.992a24.896 24.896 0 0 0 32 7.552l331.136-189.44c7.616-4.48 19.84-4.48 27.52 0L860.8 258.56c9.792 5.76 27.648 3.392 34.624-7.552z m0 160.128c7.04-11.008-0.384-25.408-10.304-31.04L541.76 177.664a61.824 61.824 0 0 0-59.52 0l-337.792 196.48c-10.048 5.632-16.192 26.688-9.408 36.992a24.896 24.896 0 0 0 32 7.552l331.136-189.44c7.616-4.416 19.84-4.48 27.52 0L860.8 418.688c9.792 5.76 27.648 3.392 34.624-7.552z"  horiz-adv-x="1024" />

    
    <glyph glyph-name="shouye" unicode="&#58908;" d="M763.612-65.987H589.447a31.503 31.503 0 0 0-32.402 32.403V145.531h-99.909v-179.115a31.503 31.503 0 0 0-32.402-32.403H253.269a97.388 97.388 0 0 0-97.208 97.208V315.195h-18.452a74.931 74.931 0 0 0-75.606 75.607 73.491 73.491 0 0 0 21.152 52.204l327.627 346.98a141.672 141.672 0 0 0 199.367 5.85 10.53 10.53 0 0 1 5.4-5.4l327.628-347.43a75.156 75.156 0 0 0-54.904-127.81H860.37V31.22a97.298 97.298 0 0 0-96.758-97.208zM622.75-1.18h140.412a33.978 33.978 0 0 1 33.753 33.753V347.598a31.503 31.503 0 0 0 32.403 32.403h60.755a10.53 10.53 0 0 1 9.9 7.2 11.431 11.431 0 0 1-2.7 12.601l-328.977 345.63a75.966 75.966 0 0 1-108.46 2.7 2.925 2.925 0 0 1-2.7-2.7L129.51 399.351a11.16 11.16 0 0 1 0-15.3 10.396 10.396 0 0 1 8.55-2.701h52.205a31.503 31.503 0 0 0 32.403-32.403v-316.376a33.978 33.978 0 0 1 33.752-33.753h138.612V154.532a64.805 64.805 0 0 0 64.805 64.805h99.909a64.805 64.805 0 0 0 64.805-64.805l-1.8-155.713z"  horiz-adv-x="1027" />

    
    <glyph glyph-name="shenheliebiaoguanli" unicode="&#58909;" d="M183.186 27.314c-29.6 0-47.4 23.7-47.4 47.4v616.4c0 23.7 17.8 47.4 47.4 47.4h628.3c17.8 0 35.6-23.7 35.6-47.4v-355.6c17.8-5.9 41.5-11.9 59.3-17.8v391.2c0 47.4-35.6 88.9-83 88.9h-663.9c-47.4 0-83-23.7-83-77.1v-675.7c0-53.3 35.6-77.1 83-77.1h426.8c-5.9 17.8-11.9 41.5-17.8 59.3h-385.3zM692.986 608.214h-403.1c-17.8 0-35.6-17.8-35.6-29.6 0-17.8 17.8-29.6 35.6-29.6h409c11.9 0 29.6 11.9 29.6 29.6 0 11.8-17.8 29.6-35.5 29.6z m0-148.2h-403.1c-17.8 0-35.6-11.9-35.6-29.6 0-17.8 17.8-29.6 35.6-29.6h409c17.8 0 35.6 11.9 35.6 29.6-6 17.7-23.8 29.6-41.5 29.6z m-166-148.2h-249c-11.9 0-23.7-17.8-23.7-29.6s11.9-29.6 23.7-29.6h254.9c5.9 0 17.8 11.9 17.8 29.6 0 11.8-11.9 29.6-23.7 29.6z m414.9-148.2l-41.5 5.9c0 5.9-5.9 17.8-11.9 23.7l23.7 35.6v11.9l-29.6 29.6s-5.9 5.9-11.9 0l-35.6-23.7c-5.9 5.9-17.8 5.9-23.7 11.9l-5.9 41.5c0 5.9-5.9 5.9-5.9 5.9h-41.5c-5.9 0-5.9-5.9-5.9-5.9l-5.9-41.5c-5.9 0-17.8-5.9-23.7-11.9l-35.6 23.7h-11.9l-29.6-29.6s-5.9-5.9 0-11.9l23.7-35.6c-5.9-5.9-5.9-17.8-11.9-23.7l-41.5-5.9c-5.9 0-5.9-5.9-5.9-5.9v-41.5c0-5.9 5.9-5.9 5.9-5.9l41.5-5.9c0-5.9 5.9-17.8 11.9-23.7l-23.7-35.6v-11.9l29.6-29.6s5.9-5.9 11.9 0l35.6 23.7c5.9-5.9 17.8-5.9 23.7-11.9l5.9-41.5c0-5.9 5.9-5.9 5.9-5.9h41.5c5.9 0 5.9 5.9 5.9 5.9l5.9 41.5c5.9 0 17.8 5.9 23.7 11.9l35.6-23.7h11.9l29.6 29.6s5.9 5.9 0 11.9l-23.7 35.6c5.9 5.9 5.9 17.8 11.9 23.7l41.5 5.9c5.9 0 5.9 5.9 5.9 5.9v41.5l-5.9 5.9z m-160-106.7c-41.5 0-83 35.6-83 77.1s35.6 83 83 83c41.5 0 77.1-35.6 77.1-83-0.1-41.5-35.6-77.1-77.1-77.1z"  horiz-adv-x="1024" />

    
    <glyph glyph-name="xiangmubaogaoguanli" unicode="&#58910;" d="M896 787.968h-52.224c-16.896 0-30.72-13.824-30.72-30.72s13.824-30.72 30.72-30.72H896c16.896 0 30.72-13.824 30.72-30.72v-651.776c0-16.896-13.824-30.72-30.72-30.72H129.536c-16.896 0-30.72 13.824-30.72 30.72V695.808c0 16.896 13.824 30.72 30.72 30.72h79.36c16.896 0 30.72 13.824 30.72 30.72s-13.824 30.72-30.72 30.72h-79.36c-50.688 0-92.16-41.472-92.16-92.16v-651.776c0-50.688 41.472-92.16 92.16-92.16H896c50.688 0 92.16 41.472 92.16 92.16V695.808c0 50.688-41.472 92.16-92.16 92.16zM408.576 726.528H640c16.896 0 30.72 13.824 30.72 30.72s-13.824 30.72-30.72 30.72H408.576c-16.896 0-30.72-13.824-30.72-30.72s13.824-30.72 30.72-30.72z m-99.84-55.808c16.896 0 30.72 13.824 30.72 30.72V840.704c0 16.896-13.824 30.72-30.72 30.72s-30.72-13.824-30.72-30.72V701.44c0-16.896 13.824-30.72 30.72-30.72z m432.64 0c16.896 0 30.72 13.824 30.72 30.72V832.512c0 16.896-13.824 30.72-30.72 30.72s-30.72-13.824-30.72-30.72V701.44c0-16.896 13.824-30.72 30.72-30.72z m-13.312-159.744L457.728 240.64 333.824 364.544c-11.776 11.776-31.232 11.776-43.52 0-11.776-11.776-11.776-31.232 0-43.52l145.408-145.408c6.144-6.144 13.824-9.216 21.504-9.216 3.072 0 6.144 0.512 8.704 1.536 4.608 1.536 9.216 3.584 12.8 7.68l291.84 291.84c11.776 11.776 11.776 31.232 0 43.52-11.264 12.288-30.72 12.288-42.496 0z"  horiz-adv-x="1024" />

    
    <glyph glyph-name="chakan" unicode="&#58911;" d="M644.353-13.059c-116.47 0-211.765 95.294-211.765 211.765S527.882 410.47 644.353 410.47s211.765-95.295 211.765-211.765S760.824-13.06 644.353-13.06z m0 370.588c-90 0-158.824-68.823-158.824-158.823s68.824-158.824 158.824-158.824 158.823 68.824 158.823 158.824-68.823 158.823-158.823 158.823zM882.588-66c-5.294 0-15.882 0-21.176 5.294L755.529 45.176c-10.588 10.589-10.588 26.471 0 37.06s26.471 10.588 37.06 0L898.47-23.648c10.588-10.588 10.588-26.47 0-37.059 0-5.294-10.589-5.294-15.883-5.294z m-450 0H247.294c-74.118 0-132.353 58.235-132.353 132.353V701.647C114.941 775.765 173.176 834 247.294 834h529.412c74.118 0 132.353-58.235 132.353-132.353v-232.941c0-15.882-10.588-26.47-26.47-26.47s-26.471 10.588-26.471 26.47V701.647c0 42.353-37.06 79.412-79.412 79.412H247.294c-42.353 0-79.412-37.059-79.412-79.412v-635.294c0-42.353 37.06-79.412 79.412-79.412h185.294c15.883 0 26.47-10.588 26.47-26.47S448.472-66 432.589-66zM723.765 569.294h-423.53c-15.882 0-26.47 10.588-26.47 26.47s10.588 26.471 26.47 26.471h423.53c15.882 0 26.47-10.588 26.47-26.47s-10.588-26.47-26.47-26.47zM406.118 410.471H300.235c-15.882 0-26.47 10.588-26.47 26.47s10.588 26.47 26.47 26.47h105.883c15.882 0 26.47-10.587 26.47-26.47s-10.588-26.47-26.47-26.47z"  horiz-adv-x="1024" />

    
    <glyph glyph-name="bianji" unicode="&#58912;" d="M863.086 18.286H212.114c-21.943 0-36.571-14.629-36.571-36.572 0-14.628 14.628-29.257 36.571-36.571h643.657c21.943 0 36.572 14.628 36.572 36.571s-14.629 36.572-29.257 36.572zM621.714 640l102.4-109.714L358.4 157.257l-109.714 7.314v102.4L621.714 640z m102.4 102.4L833.83 632.686l-58.515-51.2-102.4 102.4 51.2 58.514zM219.43 91.429h146.285c14.629 0 21.943 7.314 29.257 14.628L885.03 596.114c7.314 7.315 14.628 21.943 14.628 36.572s-7.314 29.257-14.628 36.571L760.686 800.914c-21.943 21.943-58.515 21.943-80.457 0L190.17 310.857c-7.314-14.628-7.314-21.943-7.314-36.571V128c0-21.943 14.629-36.571 36.572-36.571z"  horiz-adv-x="1024" />

    
    <glyph glyph-name="xiangmuguanli" unicode="&#58913;" d="M588.956 184.861c-5.55 0-10.406 1.387-15.262 4.162L14.568 514.371C5.55 519.921 0 530.326 0 540.731s6.243 20.812 15.262 26.362L606.992 892.44c9.018 4.856 20.118 4.856 29.83-0.693l558.432-325.348c9.018-5.55 15.262-15.262 14.568-26.36 0-11.1-6.243-20.812-15.262-26.362L603.524 189.023c-4.856-2.775-9.712-4.162-14.568-4.162zM90.876 539.344l498.08-289.968 529.297 291.356L620.866 830.7 90.876 539.344zM1088.424 501.884l60.352 0.694 3.468-341.997-60.352-0.693-3.468 341.996zM609.767-128c-222.68 0-404.43 181.057-404.43 404.43V417.252h60.352V276.43c0-189.381 154.003-344.078 344.078-344.078S953.845 86.355 953.845 276.43V440.145h60.352v-164.409C1013.503 53.057 832.447-128 609.767-128z"  horiz-adv-x="1210" />

    
    <glyph glyph-name="huanyizhang" unicode="&#58914;" d="M158.52 459.42c-2.85 0-5.744 0.398-8.616 1.232-16.355 4.751-25.762 21.86-21.01 38.214 23.204 79.87 72.6 151.765 139.09 202.438 68.722 52.373 150.826 80.055 237.44 80.055 81.016 0 158.78-24.508 224.885-70.875 64.593-45.307 113.542-108.07 141.547-181.508 6.068-15.913-1.913-33.731-17.825-39.8-15.91-6.072-33.73 1.914-39.799 17.823-48.513 127.217-172.614 212.688-308.809 212.688-146.113 0-276.594-97.88-317.307-238.027-3.916-13.48-16.23-22.24-29.596-22.24zM874.64 430.174c-3.94 0-7.948 0.76-11.808 2.363L746.1 480.993c-15.73 6.529-23.187 24.572-16.659 40.3 6.53 15.728 24.574 23.184 40.301 16.657l88.926-36.912 39.557 89.21c6.9 15.569 25.118 22.59 40.687 15.69 15.569-6.904 22.593-25.12 15.688-40.688l-51.758-116.734c-5.091-11.481-16.36-18.342-28.2-18.342zM515.67-10.41c-81.016 0-158.779 24.508-224.884 70.875-64.596 45.306-113.54 108.07-141.547 181.508-6.067 15.913 1.913 33.732 17.825 39.8 15.912 6.072 33.732-1.914 39.798-17.823 48.514-127.217 172.615-212.688 308.81-212.688 146.112 0 276.592 97.88 317.304 238.027 4.752 16.355 21.875 25.759 38.214 21.008 16.353-4.75 25.761-21.86 21.01-38.214-23.204-79.87-72.6-151.765-139.09-202.439-68.72-52.371-150.827-80.054-237.44-80.054zM94.662 162.357c-4.175 0-8.419 0.852-12.481 2.654-15.569 6.904-22.593 25.12-15.689 40.688l51.76 116.734c6.783 15.304 24.547 22.402 40.008 15.98l116.734-48.456c15.73-6.529 23.187-24.571 16.658-40.3-6.53-15.73-24.573-23.188-40.301-16.658l-88.927 36.913-39.557-89.211c-5.1-11.505-16.38-18.344-28.205-18.344z"  horiz-adv-x="1024" />

    
    <glyph glyph-name="touxiang" unicode="&#58915;" d="M273.632 384.284c0-282.233 228.803-511.036 511.035-511.036s511.036 228.803 511.036 511.036S1066.9 895.319 784.667 895.319 273.632 666.516 273.632 384.284z m0 0M320.14 384.284c0-256.596 208.045-464.64 464.64-464.64 256.596 0 464.64 208.044 464.64 464.64 0 256.595-208.044 464.64-464.64 464.64-256.595 0-464.64-208.045-464.64-464.64z m0 0M784.78-80.356c126.37 0 241.169 50.593 324.886 132.495-7.147 27.452-15.2 50.48-24.276 61.937-36.3 45.375-201.125 67.495-201.125 67.495L784.781 154.8l-99.258 26.657s-163.917-21.553-200.217-66.928c-9.189-11.57-17.47-35.052-24.73-63.07 83.717-81.562 198.062-131.815 324.205-131.815z m0 0M574.014 435.104c-2.496 26.09 11.57 49.345 31.762 52.18s38.57-16.107 41.405-42.311c2.496-26.091-11.57-49.346-31.762-52.182-20.306-2.836-38.796 16.222-41.405 42.313M706.169 279.92v-134.99h156.316V279.92H706.17z m247.066 112.87c-20.191 2.27-33.804 25.184-30.287 51.388 3.403 26.09 22.46 45.601 42.539 43.333 20.192-2.27 33.804-25.183 30.287-51.387-3.516-26.205-22.46-45.489-42.539-43.334M784.78 654.945s-166.185-7.033-166.185-95.968v-180.365c0-34.939 56.492-134.537 107.198-138.734 25.524-2.042 58.76-4.765 58.76-4.765s33.465 2.836 58.762 4.765c50.706 4.31 106.63 103.795 106.63 138.734V554.326c0.454 88.482-165.164 100.62-165.164 100.62M886.648 630.443c-46.623 20.646-101.867 24.616-101.867 24.616h-0.227c-7.26-0.34-165.846-9.075-165.846-95.968v-180.366c0-34.939 56.492-134.537 107.199-138.734 25.523-2.042 58.76-4.764 58.76-4.764s33.464 2.836 58.761 4.764c50.707 4.31 107.198 103.795 107.198 138.734V554.326c-0.227 37.321-29.834 61.143-63.978 76.117M683.481 185.768l87.347-265.897c4.65-0.227 9.302-0.227 13.953-0.227 4.31 0 8.734 0.113 13.045 0.227l87.347 265.897-100.846-20.646-100.846 20.646z m0 0M796.351 107.156l22.915 22.914-34.599 34.712-34.258-34.712 22.915-22.914-28.473-134.424 39.816-39.816 39.817 39.816-28.133 134.424z m0 0M784.78 165.009l81.449 41.064 41.972-24.729-68.29-97.556-55.13 81.221z m0 0M785.008 165.009l-81.335 41.178-41.972-24.73 82.47-97.556 40.837 81.108z m0 0M958.227 452.12h-15.882L921.133 599.7s48.21 18.944 58.193-39.249c9.87-57.853-21.1-108.333-21.1-108.333m-355.512 0h15.88L639.808 599.7s-48.211 18.944-58.194-39.249c-9.869-57.853 21.1-108.333 21.1-108.333M621.43 584.954s67.496-52.521 161.082-52.521 182.067 28.926 222.337 107.766c-2.268-0.568-71.805 11.91-158.812 78.271-109.58 83.83-315.016-40.383-224.606-133.516"  horiz-adv-x="1551" />

    
    <glyph glyph-name="tongzhi" unicode="&#58916;" d="M597.1 711.3c0 39-32.7 70.8-73.1 70.8-40.3 0-73.1-31.7-73.1-70.8 0-4 0.4-7.9 1-11.7-100.9-34-183.7-138.7-183.7-262.5v-97.4s0-140.3-35.5-141.6c-21.2 0-37.5-15.8-37.5-35.4 0-19.6 16.4-35.4 36.5-35.4h584.6c20.3 0 36.5 15.8 36.5 35.4 0 19.7-16.4 35.4-36.5 35.4-36.5 0-36.5 140.6-36.5 140.6v98.5c0 123.9-77.4 228.6-183.7 262.6 0.6 3.7 1 7.6 1 11.5z m36.5-619.2c-0.1-58.7-48.7-106.2-109.6-106.2-60.4 0-109.5 47.4-109.6 106.2"  horiz-adv-x="1024" />

    


  </font>
</defs>
</svg>
